<?xml version="1.0" encoding="UTF-8" standalone="no"?><svg xmlns="http://www.w3.org/2000/svg" xmlns:xlink="http://www.w3.org/1999/xlink" contentScriptType="application/ecmascript" contentStyleType="text/css" height="612px" preserveAspectRatio="none" style="width:1086px;height:612px;" version="1.1" viewBox="0 0 1086 612" width="1086px" zoomAndPan="magnify"><defs><filter height="300%" id="f14ds14kxvvdqg" width="300%" x="-1" y="-1"><feGaussianBlur result="blurOut" stdDeviation="2.0"/><feColorMatrix in="blurOut" result="blurOut2" type="matrix" values="0 0 0 0 0 0 0 0 0 0 0 0 0 0 0 0 0 0 .4 0"/><feOffset dx="4.0" dy="4.0" in="blurOut2" result="blurOut3"/><feBlend in="SourceGraphic" in2="blurOut3" mode="normal"/></filter></defs><g><!--cluster de.gematik.ti.cardreader.access--><polygon fill="#FFFFFF" filter="url(#f14ds14kxvvdqg)" points="22,144.5,253,144.5,260,168.1094,276,168.1094,276,600,22,600,22,144.5" style="stroke: #000000; stroke-width: 1.5;"/><line style="stroke: #000000; stroke-width: 1.5;" x1="22" x2="260" y1="168.1094" y2="168.1094"/><text fill="#000000" font-family="sans-serif" font-size="14" font-weight="bold" lengthAdjust="spacingAndGlyphs" textLength="225" x="26" y="161.0332">de.gematik.ti.cardreader.access</text><!--cluster CardReaderProvider API--><polygon fill="#FFFFFF" filter="url(#f14ds14kxvvdqg)" points="300,34,310,24,1064,24,1064,324,1054,334,300,334,300,34" style="stroke: #000000; stroke-width: 1.5;"/><line style="stroke: #000000; stroke-width: 1.5;" x1="1054" x2="1063" y1="34" y2="25"/><line style="stroke: #000000; stroke-width: 1.5;" x1="300" x2="1054" y1="34" y2="34"/><line style="stroke: #000000; stroke-width: 1.5;" x1="1054" x2="1054" y1="34" y2="334"/><text fill="#000000" font-family="sans-serif" font-size="14" font-weight="bold" lengthAdjust="spacingAndGlyphs" textLength="171" x="592.5" y="51.5332">CardReaderProvider API</text><!--cluster de.gematik.ti.cardreader.provider.api--><polygon fill="#FFFFFF" filter="url(#f14ds14kxvvdqg)" points="324,73,592,73,599,96.6094,1040,96.6094,1040,310,324,310,324,73" style="stroke: #000000; stroke-width: 1.5;"/><line style="stroke: #000000; stroke-width: 1.5;" x1="324" x2="599" y1="96.6094" y2="96.6094"/><text fill="#000000" font-family="sans-serif" font-size="14" font-weight="bold" lengthAdjust="spacingAndGlyphs" textLength="262" x="328" y="89.5332">de.gematik.ti.cardreader.provider.api</text><!--cluster de.gematik.ti.cardreader.provider.api.entities--><polygon fill="#FFFFFF" filter="url(#f14ds14kxvvdqg)" points="681,117,1006,117,1013,140.6094,1016,140.6094,1016,286,681,286,681,117" style="stroke: #000000; stroke-width: 1.5;"/><line style="stroke: #000000; stroke-width: 1.5;" x1="681" x2="1013" y1="140.6094" y2="140.6094"/><text fill="#000000" font-family="sans-serif" font-size="14" font-weight="bold" lengthAdjust="spacingAndGlyphs" textLength="319" x="685" y="133.5332">de.gematik.ti.cardreader.provider.api.entities</text><!--class CardReaderControllerManager--><rect fill="#FEFECE" filter="url(#f14ds14kxvvdqg)" height="186.3594" id="CardReaderControllerManager" style="stroke: #A80036; stroke-width: 1.5;" width="222" x="38" y="398"/><ellipse cx="62" cy="414" fill="#ADD1B2" rx="11" ry="11" style="stroke: #A80036; stroke-width: 1.0;"/><path d="M64,410.5 Q64.2031,410 64.4375,409.75 Q64.6719,409.5 64.9375,409.5 Q65.4063,409.5 65.7031,409.7813 Q66,410.0625 66,410.7188 L66,412.2813 Q66,412.9375 65.7188,413.2188 Q65.4375,413.5 65,413.5 Q64.6094,413.5 64.3594,413.3281 Q64.1094,413.1563 64,412.7031 Q63.9531,412.3906 63.7813,412.2188 Q63.4688,411.8906 62.9063,411.7031 Q62.3438,411.5 61.7813,411.5 Q61.0781,411.5 60.4844,411.7813 Q59.9063,412.0625 59.4531,412.6875 Q59,413.3125 59,414.1719 L59,415.0938 Q59,416.125 59.8438,416.8125 Q60.6875,417.5 62.1875,417.5 Q63.0781,417.5 63.7031,417.2969 Q64.0625,417.1875 64.4688,416.8281 Q64.7344,416.625 64.875,416.5625 Q65.0156,416.5 65.1875,416.5 Q65.5156,416.5 65.75,416.7656 Q66,417.0156 66,417.375 Q66,417.7188 65.6563,418.125 Q65.1563,418.7188 64.3594,419.0469 Q63.3125,419.5 62.0313,419.5 Q60.5313,419.5 59.3281,418.9063 Q58.3594,418.4375 57.6719,417.4219 Q57,416.4063 57,415.2031 L57,414.1094 Q57,412.8594 57.5938,411.7656 Q58.2031,410.6719 59.25,410.0938 Q60.3125,409.5 61.5,409.5 Q62.2188,409.5 62.8438,409.75 Q63.4688,410 64,410.5 Z "/><text fill="#000000" font-family="sans-serif" font-size="12" lengthAdjust="spacingAndGlyphs" textLength="170" x="78" y="418.9102">CardReaderControllerManager</text><line style="stroke: #A80036; stroke-width: 1.5;" x1="39" x2="259" y1="430" y2="430"/><rect fill="none" height="6" style="stroke: #C82930; stroke-width: 1.0;" width="6" x="46" y="439.418"/><text fill="#000000" font-family="sans-serif" font-size="11" lengthAdjust="spacingAndGlyphs" text-decoration="underline" textLength="196" x="58" y="445.4189">instance : CardReaderControllerManager</text><line style="stroke: #A80036; stroke-width: 1.5;" x1="39" x2="259" y1="451.8359" y2="451.8359"/><rect fill="#F24D5C" height="6" style="stroke: #C82930; stroke-width: 1.0;" width="6" x="46" y="461.2539"/><text fill="#000000" font-family="sans-serif" font-size="11" lengthAdjust="spacingAndGlyphs" textLength="154" x="58" y="467.2549">CardReaderControllerManager()</text><ellipse cx="49" cy="478.0898" fill="#84BE84" rx="3" ry="3" style="stroke: #038048; stroke-width: 1.0;"/><text fill="#000000" font-family="sans-serif" font-size="11" lengthAdjust="spacingAndGlyphs" text-decoration="underline" textLength="64" x="58" y="481.0908">getInstance()</text><ellipse cx="49" cy="491.9258" fill="#84BE84" rx="3" ry="3" style="stroke: #038048; stroke-width: 1.0;"/><text fill="#000000" font-family="sans-serif" font-size="11" lengthAdjust="spacingAndGlyphs" textLength="45" x="58" y="494.9268">initialize()</text><ellipse cx="49" cy="505.7617" fill="#84BE84" rx="3" ry="3" style="stroke: #038048; stroke-width: 1.0;"/><text fill="#000000" font-family="sans-serif" font-size="11" lengthAdjust="spacingAndGlyphs" textLength="149" x="58" y="508.7627">cardReaderProviderAvailable()</text><ellipse cx="49" cy="519.5977" fill="#84BE84" rx="3" ry="3" style="stroke: #038048; stroke-width: 1.0;"/><text fill="#000000" font-family="sans-serif" font-size="11" lengthAdjust="spacingAndGlyphs" textLength="154" x="58" y="522.5986">getCardReaderProviderNames()</text><ellipse cx="49" cy="533.4336" fill="#84BE84" rx="3" ry="3" style="stroke: #038048; stroke-width: 1.0;"/><text fill="#000000" font-family="sans-serif" font-size="11" lengthAdjust="spacingAndGlyphs" textLength="177" x="58" y="536.4346">getCardReaderProviderDescriptors()</text><ellipse cx="49" cy="547.2695" fill="#84BE84" rx="3" ry="3" style="stroke: #038048; stroke-width: 1.0;"/><text fill="#000000" font-family="sans-serif" font-size="11" lengthAdjust="spacingAndGlyphs" textLength="87" x="58" y="550.2705">getCardReaders()</text><ellipse cx="49" cy="561.1055" fill="#84BE84" rx="3" ry="3" style="stroke: #038048; stroke-width: 1.0;"/><text fill="#000000" font-family="sans-serif" font-size="11" lengthAdjust="spacingAndGlyphs" textLength="133" x="58" y="564.1064">getCardReaderControllers()</text><rect fill="#F24D5C" height="6" style="stroke: #C82930; stroke-width: 1.0;" width="6" x="46" y="571.9414"/><text fill="#000000" font-family="sans-serif" font-size="11" lengthAdjust="spacingAndGlyphs" textLength="127" x="58" y="577.9424">getCardReaderProviders()</text><!--class ICardReaderControllerInitializer--><rect fill="#FEFECE" filter="url(#f14ds14kxvvdqg)" height="61.8359" id="ICardReaderControllerInitializer" style="stroke: #A80036; stroke-width: 1.5;" width="209" x="44.5" y="180.5"/><ellipse cx="59.5" cy="196.5" fill="#B4A7E5" rx="11" ry="11" style="stroke: #A80036; stroke-width: 1.0;"/><path d="M60.5,193.5 L60.5,199.5 L62.5,199.5 L62.9844,199.5 L63.5,200.125 L63.5,200.5 L63.5,200.875 L62.9844,201.5 L62.5,201.5 L56.5,201.5 L56.0156,201.5 L55.5,200.875 L55.5,200.5 L55.5,200.125 L56.0156,199.5 L56.5,199.5 L58.5,199.5 L58.5,193.5 L56.5,193.5 L56.0156,193.5 L55.5,192.875 L55.5,192.5 L55.5,192.125 L56.0156,191.5 L56.5,191.5 L62.5,191.5 L62.9844,191.5 L63.5,192.125 L63.5,192.5 L63.5,192.875 L62.9844,193.5 L62.5,193.5 L60.5,193.5 Z "/><text fill="#000000" font-family="sans-serif" font-size="12" font-style="italic" lengthAdjust="spacingAndGlyphs" textLength="177" x="73.5" y="201.4102">ICardReaderControllerInitializer</text><line style="stroke: #A80036; stroke-width: 1.5;" x1="45.5" x2="252.5" y1="212.5" y2="212.5"/><line style="stroke: #A80036; stroke-width: 1.5;" x1="45.5" x2="252.5" y1="220.5" y2="220.5"/><ellipse cx="55.5" cy="232.918" fill="#84BE84" rx="3" ry="3" style="stroke: #038048; stroke-width: 1.0;"/><text fill="#000000" font-family="sans-serif" font-size="11" font-style="italic" lengthAdjust="spacingAndGlyphs" textLength="159" x="64.5" y="235.9189">initializeCardReaderController()</text><!--class ICardReader--><rect fill="#FEFECE" filter="url(#f14ds14kxvvdqg)" height="158.6875" id="ICardReader" style="stroke: #A80036; stroke-width: 1.5;" width="132" x="340" y="132"/><ellipse cx="367.6" cy="148" fill="#B4A7E5" rx="11" ry="11" style="stroke: #A80036; stroke-width: 1.0;"/><path d="M368.6,145 L368.6,151 L370.6,151 L371.0844,151 L371.6,151.625 L371.6,152 L371.6,152.375 L371.0844,153 L370.6,153 L364.6,153 L364.1156,153 L363.6,152.375 L363.6,152 L363.6,151.625 L364.1156,151 L364.6,151 L366.6,151 L366.6,145 L364.6,145 L364.1156,145 L363.6,144.375 L363.6,144 L363.6,143.625 L364.1156,143 L364.6,143 L370.6,143 L371.0844,143 L371.6,143.625 L371.6,144 L371.6,144.375 L371.0844,145 L370.6,145 L368.6,145 Z "/><text fill="#000000" font-family="sans-serif" font-size="12" font-style="italic" lengthAdjust="spacingAndGlyphs" textLength="72" x="384.4" y="152.9102">ICardReader</text><line style="stroke: #A80036; stroke-width: 1.5;" x1="341" x2="471" y1="164" y2="164"/><line style="stroke: #A80036; stroke-width: 1.5;" x1="341" x2="471" y1="172" y2="172"/><ellipse cx="351" cy="184.418" fill="#84BE84" rx="3" ry="3" style="stroke: #038048; stroke-width: 1.0;"/><text fill="#000000" font-family="sans-serif" font-size="11" font-style="italic" lengthAdjust="spacingAndGlyphs" textLength="50" x="360" y="187.4189">initialize()</text><ellipse cx="351" cy="198.2539" fill="#84BE84" rx="3" ry="3" style="stroke: #038048; stroke-width: 1.0;"/><text fill="#000000" font-family="sans-serif" font-size="11" font-style="italic" lengthAdjust="spacingAndGlyphs" textLength="65" x="360" y="201.2549">isInitialized()</text><ellipse cx="351" cy="212.0898" fill="#84BE84" rx="3" ry="3" style="stroke: #038048; stroke-width: 1.0;"/><text fill="#000000" font-family="sans-serif" font-size="11" font-style="italic" lengthAdjust="spacingAndGlyphs" textLength="47" x="360" y="215.0908">connect()</text><ellipse cx="351" cy="225.9258" fill="#84BE84" rx="3" ry="3" style="stroke: #038048; stroke-width: 1.0;"/><text fill="#000000" font-family="sans-serif" font-size="11" font-style="italic" lengthAdjust="spacingAndGlyphs" textLength="47" x="360" y="228.9268">connect()</text><ellipse cx="351" cy="239.7617" fill="#84BE84" rx="3" ry="3" style="stroke: #038048; stroke-width: 1.0;"/><text fill="#000000" font-family="sans-serif" font-size="11" font-style="italic" lengthAdjust="spacingAndGlyphs" textLength="52" x="360" y="242.7627">getName()</text><ellipse cx="351" cy="253.5977" fill="#84BE84" rx="3" ry="3" style="stroke: #038048; stroke-width: 1.0;"/><text fill="#000000" font-family="sans-serif" font-size="11" font-style="italic" lengthAdjust="spacingAndGlyphs" textLength="79" x="360" y="256.5986">isCardPresent()</text><ellipse cx="351" cy="267.4336" fill="#84BE84" rx="3" ry="3" style="stroke: #038048; stroke-width: 1.0;"/><text fill="#000000" font-family="sans-serif" font-size="11" font-style="italic" lengthAdjust="spacingAndGlyphs" textLength="103" x="360" y="270.4346">waitForCardAbsent()</text><ellipse cx="351" cy="281.2695" fill="#84BE84" rx="3" ry="3" style="stroke: #038048; stroke-width: 1.0;"/><text fill="#000000" font-family="sans-serif" font-size="11" font-style="italic" lengthAdjust="spacingAndGlyphs" textLength="106" x="360" y="284.2705">waitForCardPresent()</text><!--class ICardReaderController--><rect fill="#FEFECE" filter="url(#f14ds14kxvvdqg)" height="61.8359" id="ICardReaderController" style="stroke: #A80036; stroke-width: 1.5;" width="158" x="507" y="180.5"/><ellipse cx="522" cy="196.5" fill="#B4A7E5" rx="11" ry="11" style="stroke: #A80036; stroke-width: 1.0;"/><path d="M523,193.5 L523,199.5 L525,199.5 L525.4844,199.5 L526,200.125 L526,200.5 L526,200.875 L525.4844,201.5 L525,201.5 L519,201.5 L518.5156,201.5 L518,200.875 L518,200.5 L518,200.125 L518.5156,199.5 L519,199.5 L521,199.5 L521,193.5 L519,193.5 L518.5156,193.5 L518,192.875 L518,192.5 L518,192.125 L518.5156,191.5 L519,191.5 L525,191.5 L525.4844,191.5 L526,192.125 L526,192.5 L526,192.875 L525.4844,193.5 L525,193.5 L523,193.5 Z "/><text fill="#000000" font-family="sans-serif" font-size="12" font-style="italic" lengthAdjust="spacingAndGlyphs" textLength="126" x="536" y="201.4102">ICardReaderController</text><line style="stroke: #A80036; stroke-width: 1.5;" x1="508" x2="664" y1="212.5" y2="212.5"/><line style="stroke: #A80036; stroke-width: 1.5;" x1="508" x2="664" y1="220.5" y2="220.5"/><ellipse cx="518" cy="232.918" fill="#84BE84" rx="3" ry="3" style="stroke: #038048; stroke-width: 1.0;"/><text fill="#000000" font-family="sans-serif" font-size="11" font-style="italic" lengthAdjust="spacingAndGlyphs" textLength="89" x="527" y="235.9189">getCardReaders()</text><!--class IProviderDescriptor--><rect fill="#FEFECE" filter="url(#f14ds14kxvvdqg)" height="117.1797" id="IProviderDescriptor" style="stroke: #A80036; stroke-width: 1.5;" width="138" x="700" y="153"/><ellipse cx="715" cy="169" fill="#B4A7E5" rx="11" ry="11" style="stroke: #A80036; stroke-width: 1.0;"/><path d="M716,166 L716,172 L718,172 L718.4844,172 L719,172.625 L719,173 L719,173.375 L718.4844,174 L718,174 L712,174 L711.5156,174 L711,173.375 L711,173 L711,172.625 L711.5156,172 L712,172 L714,172 L714,166 L712,166 L711.5156,166 L711,165.375 L711,165 L711,164.625 L711.5156,164 L712,164 L718,164 L718.4844,164 L719,164.625 L719,165 L719,165.375 L718.4844,166 L718,166 L716,166 Z "/><text fill="#000000" font-family="sans-serif" font-size="12" font-style="italic" lengthAdjust="spacingAndGlyphs" textLength="106" x="729" y="173.9102">IProviderDescriptor</text><line style="stroke: #A80036; stroke-width: 1.5;" x1="701" x2="837" y1="185" y2="185"/><line style="stroke: #A80036; stroke-width: 1.5;" x1="701" x2="837" y1="193" y2="193"/><ellipse cx="711" cy="205.418" fill="#84BE84" rx="3" ry="3" style="stroke: #038048; stroke-width: 1.0;"/><text fill="#000000" font-family="sans-serif" font-size="11" font-style="italic" lengthAdjust="spacingAndGlyphs" textLength="52" x="720" y="208.4189">getName()</text><ellipse cx="711" cy="219.2539" fill="#84BE84" rx="3" ry="3" style="stroke: #038048; stroke-width: 1.0;"/><text fill="#000000" font-family="sans-serif" font-size="11" font-style="italic" lengthAdjust="spacingAndGlyphs" textLength="62" x="720" y="222.2549">getLicense()</text><ellipse cx="711" cy="233.0898" fill="#84BE84" rx="3" ry="3" style="stroke: #038048; stroke-width: 1.0;"/><text fill="#000000" font-family="sans-serif" font-size="11" font-style="italic" lengthAdjust="spacingAndGlyphs" textLength="80" x="720" y="236.0908">getDescription()</text><ellipse cx="711" cy="246.9258" fill="#84BE84" rx="3" ry="3" style="stroke: #038048; stroke-width: 1.0;"/><text fill="#000000" font-family="sans-serif" font-size="11" font-style="italic" lengthAdjust="spacingAndGlyphs" textLength="106" x="720" y="249.9268">getShortDescription()</text><ellipse cx="711" cy="260.7617" fill="#84BE84" rx="3" ry="3" style="stroke: #038048; stroke-width: 1.0;"/><text fill="#000000" font-family="sans-serif" font-size="11" font-style="italic" lengthAdjust="spacingAndGlyphs" textLength="81" x="720" y="263.7627">getClassName()</text><!--link ICardReaderControllerInitializer to CardReaderControllerManager--><path d="M149,262.988 C149,300.589 149,352.977 149,397.953 " fill="none" id="ICardReaderControllerInitializer-CardReaderControllerManager" style="stroke: #A80036; stroke-width: 1.0; stroke-dasharray: 7.0,7.0;"/><polygon fill="none" points="142,262.726,149,242.726,156,262.726,142,262.726" style="stroke: #A80036; stroke-width: 1.0;"/><text fill="#000000" font-family="sans-serif" font-size="13" lengthAdjust="spacingAndGlyphs" textLength="35" x="150" y="364.4951">«use»</text><!--link ICardReader to CardReaderControllerManager--><path d="M325.889,299.001 C296.82,330.389 263.883,365.954 234.376,397.813 " fill="none" id="ICardReader-CardReaderControllerManager" style="stroke: #A80036; stroke-width: 1.0; stroke-dasharray: 7.0,7.0;"/><polygon fill="none" points="321.091,293.88,339.816,283.963,331.362,303.393,321.091,293.88" style="stroke: #A80036; stroke-width: 1.0;"/><text fill="#000000" font-family="sans-serif" font-size="13" lengthAdjust="spacingAndGlyphs" textLength="35" x="279" y="364.4951">«use»</text><!--link IProviderDescriptor to CardReaderControllerManager--><path d="M739.273,288.313 C728.298,308.209 714.018,327.992 696,342 C568.432,441.183 379.385,474.019 260.264,484.815 " fill="none" id="IProviderDescriptor-CardReaderControllerManager" style="stroke: #A80036; stroke-width: 1.0; stroke-dasharray: 7.0,7.0;"/><polygon fill="none" points="733.171,284.868,748.436,270.171,745.668,291.179,733.171,284.868" style="stroke: #A80036; stroke-width: 1.0;"/><text fill="#000000" font-family="sans-serif" font-size="13" lengthAdjust="spacingAndGlyphs" textLength="35" x="684" y="364.4951">«use»</text><!--link ICardReaderController to CardReaderControllerManager--><path d="M559.594,259.663 C542.577,286.637 518.359,319.478 490,342 C421.9,396.084 331.013,434.237 260.195,458.245 " fill="none" id="ICardReaderController-CardReaderControllerManager" style="stroke: #A80036; stroke-width: 1.0; stroke-dasharray: 7.0,7.0;"/><polygon fill="none" points="553.609,256.033,569.948,242.54,565.59,263.277,553.609,256.033" style="stroke: #A80036; stroke-width: 1.0;"/><text fill="#000000" font-family="sans-serif" font-size="13" lengthAdjust="spacingAndGlyphs" textLength="35" x="475" y="364.4951">«use»</text><!--
@startuml

  package de.gematik.ti.cardreader.access {
    class CardReaderControllerManager {
        {static} - instance : CardReaderControllerManager
        - CardReaderControllerManager()
        {static} + getInstance()
        + initialize()
        + cardReaderProviderAvailable()
        + getCardReaderProviderNames()
        + getCardReaderProviderDescriptors()
        + getCardReaders()
        + getCardReaderControllers()
        - getCardReaderProviders()
    }
  }


  package de.gematik.ti.cardreader.access {
    interface ICardReaderControllerInitializer {
        {abstract} + initializeCardReaderController()
    }
  }

  ICardReaderControllerInitializer  <|.. CardReaderControllerManager : <<use>>



    node "CardReaderProvider API" {
        package de.gematik.ti.cardreader.provider.api {
            interface ICardReader {
                {abstract} + initialize()
                {abstract} + isInitialized()
                {abstract} + connect()
                {abstract} + connect()
                {abstract} + getName()
                {abstract} + isCardPresent()
                {abstract} + waitForCardAbsent()
                {abstract} + waitForCardPresent()
            }
        }

        package de.gematik.ti.cardreader.provider.api {
            package de.gematik.ti.cardreader.provider.api.entities {
                  interface IProviderDescriptor {
                      {abstract} + getName()
                      {abstract} + getLicense()
                      {abstract} + getDescription()
                      {abstract} + getShortDescription()
                      {abstract} + getClassName()
                  }
            }
        }

        package de.gematik.ti.cardreader.provider.api {
            interface ICardReaderController {
                {abstract} + getCardReaders()
            }
          }
    }

    ICardReader  <|.. CardReaderControllerManager : <<use>>
    IProviderDescriptor  <|.. CardReaderControllerManager : <<use>>
    ICardReaderController  <|.. CardReaderControllerManager : <<use>>

@enduml

PlantUML version 1.2019.06(Fri May 24 19:10:25 CEST 2019)
(APACHE source distribution)
Java Runtime: OpenJDK Runtime Environment
JVM: OpenJDK 64-Bit Server VM
Java Version: 11.0.4+10-b304.69
Operating System: Windows 7
OS Version: 6.1
Default Encoding: Cp1252
Language: de
Country: DE
--></g></svg>