<?xml version="1.0" encoding="UTF-8" standalone="no"?><svg xmlns="http://www.w3.org/2000/svg" xmlns:xlink="http://www.w3.org/1999/xlink" contentScriptType="application/ecmascript" contentStyleType="text/css" height="387px" preserveAspectRatio="none" style="width:370px;height:387px;" version="1.1" viewBox="0 0 370 387" width="370px" zoomAndPan="magnify"><defs><filter height="300%" id="f1io1a5yw5fkeq" width="300%" x="-1" y="-1"><feGaussianBlur result="blurOut" stdDeviation="2.0"/><feColorMatrix in="blurOut" result="blurOut2" type="matrix" values="0 0 0 0 0 0 0 0 0 0 0 0 0 0 0 0 0 0 .4 0"/><feOffset dx="4.0" dy="4.0" in="blurOut2" result="blurOut3"/><feBlend in="SourceGraphic" in2="blurOut3" mode="normal"/></filter></defs><g><!--cluster de.gematik.ti.cardreader.access--><polygon fill="#FFFFFF" filter="url(#f1io1a5yw5fkeq)" points="63,261,294,261,301,284.6094,305,284.6094,305,375,63,375,63,261" style="stroke: #000000; stroke-width: 1.5;"/><line style="stroke: #000000; stroke-width: 1.5;" x1="63" x2="301" y1="284.6094" y2="284.6094"/><text fill="#000000" font-family="sans-serif" font-size="14" font-weight="bold" lengthAdjust="spacingAndGlyphs" textLength="225" x="67" y="277.5332">de.gematik.ti.cardreader.access</text><!--cluster CardReaderProvider API--><polygon fill="#FFFFFF" filter="url(#f1io1a5yw5fkeq)" points="22,34,32,24,348,24,348,201,338,211,22,211,22,34" style="stroke: #000000; stroke-width: 1.5;"/><line style="stroke: #000000; stroke-width: 1.5;" x1="338" x2="347" y1="34" y2="25"/><line style="stroke: #000000; stroke-width: 1.5;" x1="22" x2="338" y1="34" y2="34"/><line style="stroke: #000000; stroke-width: 1.5;" x1="338" x2="338" y1="34" y2="211"/><text fill="#000000" font-family="sans-serif" font-size="14" font-weight="bold" lengthAdjust="spacingAndGlyphs" textLength="171" x="95.5" y="51.5332">CardReaderProvider API</text><!--cluster de.gematik.ti.cardreader.provider.api--><polygon fill="#FFFFFF" filter="url(#f1io1a5yw5fkeq)" points="46,73,314,73,321,96.6094,324,96.6094,324,187,46,187,46,73" style="stroke: #000000; stroke-width: 1.5;"/><line style="stroke: #000000; stroke-width: 1.5;" x1="46" x2="321" y1="96.6094" y2="96.6094"/><text fill="#000000" font-family="sans-serif" font-size="14" font-weight="bold" lengthAdjust="spacingAndGlyphs" textLength="262" x="50" y="89.5332">de.gematik.ti.cardreader.provider.api</text><!--class ICardReaderControllerInitializer--><rect fill="#FEFECE" filter="url(#f1io1a5yw5fkeq)" height="61.8359" id="ICardReaderControllerInitializer" style="stroke: #A80036; stroke-width: 1.5;" width="209" x="79.5" y="297"/><ellipse cx="94.5" cy="313" fill="#B4A7E5" rx="11" ry="11" style="stroke: #A80036; stroke-width: 1.0;"/><path d="M95.5,310 L95.5,316 L97.5,316 L97.9844,316 L98.5,316.625 L98.5,317 L98.5,317.375 L97.9844,318 L97.5,318 L91.5,318 L91.0156,318 L90.5,317.375 L90.5,317 L90.5,316.625 L91.0156,316 L91.5,316 L93.5,316 L93.5,310 L91.5,310 L91.0156,310 L90.5,309.375 L90.5,309 L90.5,308.625 L91.0156,308 L91.5,308 L97.5,308 L97.9844,308 L98.5,308.625 L98.5,309 L98.5,309.375 L97.9844,310 L97.5,310 L95.5,310 Z "/><text fill="#000000" font-family="sans-serif" font-size="12" font-style="italic" lengthAdjust="spacingAndGlyphs" textLength="177" x="108.5" y="317.9102">ICardReaderControllerInitializer</text><line style="stroke: #A80036; stroke-width: 1.5;" x1="80.5" x2="287.5" y1="329" y2="329"/><line style="stroke: #A80036; stroke-width: 1.5;" x1="80.5" x2="287.5" y1="337" y2="337"/><ellipse cx="90.5" cy="349.418" fill="#84BE84" rx="3" ry="3" style="stroke: #038048; stroke-width: 1.0;"/><text fill="#000000" font-family="sans-serif" font-size="11" font-style="italic" lengthAdjust="spacingAndGlyphs" textLength="159" x="99.5" y="352.4189">initializeCardReaderController()</text><!--class ICardReaderController--><rect fill="#FEFECE" filter="url(#f1io1a5yw5fkeq)" height="61.8359" id="ICardReaderController" style="stroke: #A80036; stroke-width: 1.5;" width="158" x="105" y="109"/><ellipse cx="120" cy="125" fill="#B4A7E5" rx="11" ry="11" style="stroke: #A80036; stroke-width: 1.0;"/><path d="M121,122 L121,128 L123,128 L123.4844,128 L124,128.625 L124,129 L124,129.375 L123.4844,130 L123,130 L117,130 L116.5156,130 L116,129.375 L116,129 L116,128.625 L116.5156,128 L117,128 L119,128 L119,122 L117,122 L116.5156,122 L116,121.375 L116,121 L116,120.625 L116.5156,120 L117,120 L123,120 L123.4844,120 L124,120.625 L124,121 L124,121.375 L123.4844,122 L123,122 L121,122 Z "/><text fill="#000000" font-family="sans-serif" font-size="12" font-style="italic" lengthAdjust="spacingAndGlyphs" textLength="126" x="134" y="129.9102">ICardReaderController</text><line style="stroke: #A80036; stroke-width: 1.5;" x1="106" x2="262" y1="141" y2="141"/><line style="stroke: #A80036; stroke-width: 1.5;" x1="106" x2="262" y1="149" y2="149"/><ellipse cx="116" cy="161.418" fill="#84BE84" rx="3" ry="3" style="stroke: #038048; stroke-width: 1.0;"/><text fill="#000000" font-family="sans-serif" font-size="11" font-style="italic" lengthAdjust="spacingAndGlyphs" textLength="89" x="125" y="164.4189">getCardReaders()</text><!--link ICardReaderController to ICardReaderControllerInitializer--><path d="M184,191.31 C184,224.991 184,268.211 184,296.7149 " fill="none" id="ICardReaderController-ICardReaderControllerInitializer" style="stroke: #A80036; stroke-width: 1.0; stroke-dasharray: 7.0,7.0;"/><polygon fill="none" points="177,191.298,184,171.298,191,191.298,177,191.298" style="stroke: #A80036; stroke-width: 1.0;"/><text fill="#000000" font-family="sans-serif" font-size="13" lengthAdjust="spacingAndGlyphs" textLength="35" x="185" y="241.4951">«use»</text><!--
@startuml

  package de.gematik.ti.cardreader.access {
    interface ICardReaderControllerInitializer {
        {abstract} + initializeCardReaderController()
    }
  }

    node "CardReaderProvider API" {
        package de.gematik.ti.cardreader.provider.api {
          interface ICardReaderController {
              {abstract} + getCardReaders()
          }
        }
    }
  ICardReaderController  <|.. ICardReaderControllerInitializer : <<use>>
@enduml

PlantUML version 1.2019.06(Fri May 24 19:10:25 CEST 2019)
(APACHE source distribution)
Java Runtime: OpenJDK Runtime Environment
JVM: OpenJDK 64-Bit Server VM
Java Version: 11.0.4+10-b304.69
Operating System: Windows 7
OS Version: 6.1
Default Encoding: Cp1252
Language: de
Country: DE
--></g></svg>