<?xml version="1.0" encoding="UTF-8" standalone="no"?><svg xmlns="http://www.w3.org/2000/svg" xmlns:xlink="http://www.w3.org/1999/xlink" contentScriptType="application/ecmascript" contentStyleType="text/css" height="734px" preserveAspectRatio="none" style="width:1152px;height:734px;" version="1.1" viewBox="0 0 1152 734" width="1152px" zoomAndPan="magnify"><defs><filter height="300%" id="filcsa2fjds0b" width="300%" x="-1" y="-1"><feGaussianBlur result="blurOut" stdDeviation="2.0"/><feColorMatrix in="blurOut" result="blurOut2" type="matrix" values="0 0 0 0 0 0 0 0 0 0 0 0 0 0 0 0 0 0 .4 0"/><feOffset dx="4.0" dy="4.0" in="blurOut2" result="blurOut3"/><feBlend in="SourceGraphic" in2="blurOut3" mode="normal"/></filter></defs><g><rect fill="#ADD8E6" height="719.75" style="stroke: #A80036; stroke-width: 1.0;" width="137" x="4" y="4"/><text fill="#000000" font-family="sans-serif" font-size="13" font-weight="bold" lengthAdjust="spacingAndGlyphs" textLength="131" x="7" y="17.4951">e.g. Android Context</text><rect fill="#ADD8E6" height="719.75" style="stroke: #A80036; stroke-width: 1.0;" width="284.5" x="700" y="4"/><text fill="#000000" font-family="sans-serif" font-size="13" font-weight="bold" lengthAdjust="spacingAndGlyphs" textLength="131" x="776.75" y="17.4951">e.g. Android Context</text><rect fill="#FFFFFF" filter="url(#filcsa2fjds0b)" height="526.2188" style="stroke: #A80036; stroke-width: 1.0;" width="10" x="444.5" y="139.9219"/><rect fill="#FFFFFF" filter="url(#filcsa2fjds0b)" height="276.1094" style="stroke: #A80036; stroke-width: 1.0;" width="10" x="449.5" y="170.2734"/><rect fill="#FFFFFF" filter="url(#filcsa2fjds0b)" height="145.0547" style="stroke: #A80036; stroke-width: 1.0;" width="10" x="449.5" y="476.7344"/><rect fill="#FFFFFF" filter="url(#filcsa2fjds0b)" height="237.7578" style="stroke: #A80036; stroke-width: 1.0;" width="10" x="806.5" y="208.625"/><rect fill="#FFFFFF" filter="url(#filcsa2fjds0b)" height="175.4063" style="stroke: #A80036; stroke-width: 1.0;" width="10" x="806.5" y="476.7344"/><rect fill="#FFFFFF" filter="url(#filcsa2fjds0b)" height="57.3516" style="stroke: #A80036; stroke-width: 1.0;" width="10" x="953.5" y="287.3281"/><rect fill="#FFFFFF" filter="url(#filcsa2fjds0b)" height="57.3516" style="stroke: #A80036; stroke-width: 1.0;" width="10" x="953.5" y="375.0313"/><rect fill="#FFFFFF" filter="url(#filcsa2fjds0b)" height="57.3516" style="stroke: #A80036; stroke-width: 1.0;" width="10" x="1050.5" y="550.4375"/><rect fill="#FEFECE" filter="url(#filcsa2fjds0b)" height="31.6094" style="stroke: #A80036; stroke-width: 1.5;" width="211" x="704" y="70.9609"/><text fill="#000000" font-family="sans-serif" font-size="14" lengthAdjust="spacingAndGlyphs" textLength="197" x="711" y="92.4941">ICardReaderControllerInitializer</text><line style="stroke: #A80036; stroke-width: 1.0; stroke-dasharray: 5.0,5.0;" x1="72" x2="72" y1="60.9609" y2="684.1406"/><line style="stroke: #A80036; stroke-width: 1.0; stroke-dasharray: 5.0,5.0;" x1="449.5" x2="449.5" y1="60.9609" y2="684.1406"/><line style="stroke: #A80036; stroke-width: 1.0; stroke-dasharray: 5.0,5.0;" x1="811" x2="811" y1="104.2656" y2="684.1406"/><line style="stroke: #A80036; stroke-width: 1.0; stroke-dasharray: 5.0,5.0;" x1="958.5" x2="958.5" y1="60.9609" y2="684.1406"/><line style="stroke: #A80036; stroke-width: 1.0; stroke-dasharray: 5.0,5.0;" x1="1055.5" x2="1055.5" y1="60.9609" y2="684.1406"/><rect fill="#FEFECE" filter="url(#filcsa2fjds0b)" height="31.6094" style="stroke: #A80036; stroke-width: 1.5;" width="83" x="29" y="24.3516"/><text fill="#000000" font-family="sans-serif" font-size="14" lengthAdjust="spacingAndGlyphs" textLength="69" x="36" y="45.8848">Application</text><rect fill="#FEFECE" filter="url(#filcsa2fjds0b)" height="31.6094" style="stroke: #A80036; stroke-width: 1.5;" width="83" x="29" y="683.1406"/><text fill="#000000" font-family="sans-serif" font-size="14" lengthAdjust="spacingAndGlyphs" textLength="69" x="36" y="704.6738">Application</text><rect fill="#FEFECE" filter="url(#filcsa2fjds0b)" height="31.6094" style="stroke: #A80036; stroke-width: 1.5;" width="210" x="342.5" y="24.3516"/><text fill="#000000" font-family="sans-serif" font-size="14" lengthAdjust="spacingAndGlyphs" textLength="196" x="349.5" y="45.8848">CardReaderControllerManager</text><rect fill="#FEFECE" filter="url(#filcsa2fjds0b)" height="31.6094" style="stroke: #A80036; stroke-width: 1.5;" width="210" x="342.5" y="683.1406"/><text fill="#000000" font-family="sans-serif" font-size="14" lengthAdjust="spacingAndGlyphs" textLength="196" x="349.5" y="704.6738">CardReaderControllerManager</text><rect fill="#FEFECE" filter="url(#filcsa2fjds0b)" height="31.6094" style="stroke: #A80036; stroke-width: 1.5;" width="211" x="704" y="683.1406"/><text fill="#000000" font-family="sans-serif" font-size="14" lengthAdjust="spacingAndGlyphs" textLength="197" x="711" y="704.6738">ICardReaderControllerInitializer</text><rect fill="#FEFECE" filter="url(#filcsa2fjds0b)" height="31.6094" style="stroke: #A80036; stroke-width: 1.5;" width="40" x="936.5" y="24.3516"/><text fill="#000000" font-family="sans-serif" font-size="14" lengthAdjust="spacingAndGlyphs" textLength="26" x="943.5" y="45.8848">ctc1</text><rect fill="#FEFECE" filter="url(#filcsa2fjds0b)" height="31.6094" style="stroke: #A80036; stroke-width: 1.5;" width="40" x="936.5" y="683.1406"/><text fill="#000000" font-family="sans-serif" font-size="14" lengthAdjust="spacingAndGlyphs" textLength="26" x="943.5" y="704.6738">ctc1</text><rect fill="#FEFECE" filter="url(#filcsa2fjds0b)" height="31.6094" style="stroke: #A80036; stroke-width: 1.5;" width="40" x="1033.5" y="24.3516"/><text fill="#000000" font-family="sans-serif" font-size="14" lengthAdjust="spacingAndGlyphs" textLength="26" x="1040.5" y="45.8848">ctc2</text><rect fill="#FEFECE" filter="url(#filcsa2fjds0b)" height="31.6094" style="stroke: #A80036; stroke-width: 1.5;" width="40" x="1033.5" y="683.1406"/><text fill="#000000" font-family="sans-serif" font-size="14" lengthAdjust="spacingAndGlyphs" textLength="26" x="1040.5" y="704.6738">ctc2</text><rect fill="#FFFFFF" filter="url(#filcsa2fjds0b)" height="526.2188" style="stroke: #A80036; stroke-width: 1.0;" width="10" x="444.5" y="139.9219"/><rect fill="#FFFFFF" filter="url(#filcsa2fjds0b)" height="276.1094" style="stroke: #A80036; stroke-width: 1.0;" width="10" x="449.5" y="170.2734"/><rect fill="#FFFFFF" filter="url(#filcsa2fjds0b)" height="145.0547" style="stroke: #A80036; stroke-width: 1.0;" width="10" x="449.5" y="476.7344"/><rect fill="#FFFFFF" filter="url(#filcsa2fjds0b)" height="237.7578" style="stroke: #A80036; stroke-width: 1.0;" width="10" x="806.5" y="208.625"/><rect fill="#FFFFFF" filter="url(#filcsa2fjds0b)" height="175.4063" style="stroke: #A80036; stroke-width: 1.0;" width="10" x="806.5" y="476.7344"/><rect fill="#FFFFFF" filter="url(#filcsa2fjds0b)" height="57.3516" style="stroke: #A80036; stroke-width: 1.0;" width="10" x="953.5" y="287.3281"/><rect fill="#FFFFFF" filter="url(#filcsa2fjds0b)" height="57.3516" style="stroke: #A80036; stroke-width: 1.0;" width="10" x="953.5" y="375.0313"/><rect fill="#FFFFFF" filter="url(#filcsa2fjds0b)" height="57.3516" style="stroke: #A80036; stroke-width: 1.0;" width="10" x="1050.5" y="550.4375"/><polygon fill="#A80036" points="692,89.3125,702,93.3125,692,97.3125,696,93.3125" style="stroke: #A80036; stroke-width: 1.0;"/><line style="stroke: #A80036; stroke-width: 1.0;" x1="72.5" x2="698" y1="93.3125" y2="93.3125"/><text fill="#000000" font-family="sans-serif" font-size="13" lengthAdjust="spacingAndGlyphs" textLength="23" x="79.5" y="88.4561">new</text><rect fill="#FEFECE" filter="url(#filcsa2fjds0b)" height="31.6094" style="stroke: #A80036; stroke-width: 1.5;" width="211" x="704" y="70.9609"/><text fill="#000000" font-family="sans-serif" font-size="14" lengthAdjust="spacingAndGlyphs" textLength="197" x="711" y="92.4941">ICardReaderControllerInitializer</text><polygon fill="#A80036" points="432.5,135.9219,442.5,139.9219,432.5,143.9219,436.5,139.9219" style="stroke: #A80036; stroke-width: 1.0;"/><line style="stroke: #A80036; stroke-width: 1.0;" x1="72.5" x2="438.5" y1="139.9219" y2="139.9219"/><text fill="#000000" font-family="sans-serif" font-size="13" lengthAdjust="spacingAndGlyphs" textLength="332" x="79.5" y="135.0654">call initialize with ICardReaderControllerInitializer instance</text><polygon fill="#A80036" points="799.5,166.2734,809.5,170.2734,799.5,174.2734,803.5,170.2734" style="stroke: #A80036; stroke-width: 1.0;"/><line style="stroke: #A80036; stroke-width: 1.0;" x1="459.5" x2="805.5" y1="170.2734" y2="170.2734"/><text fill="#000000" font-family="sans-serif" font-size="13" lengthAdjust="spacingAndGlyphs" textLength="333" x="466.5" y="165.417">initializeCardReaderController(ICardReaderController ctc1)</text><line style="stroke: #A80036; stroke-width: 1.0;" x1="811.5" x2="858.5" y1="195.625" y2="195.625"/><line style="stroke: #A80036; stroke-width: 1.0;" x1="858.5" x2="858.5" y1="195.625" y2="208.625"/><line style="stroke: #A80036; stroke-width: 1.0;" x1="817.5" x2="858.5" y1="208.625" y2="208.625"/><polygon fill="#A80036" points="827.5,204.625,817.5,208.625,827.5,212.625,823.5,208.625" style="stroke: #A80036; stroke-width: 1.0;"/><text fill="#000000" font-family="sans-serif" font-size="13" font-style="italic" lengthAdjust="spacingAndGlyphs" textLength="73" x="823.5" y="190.7686">internal work</text><line style="stroke: #A80036; stroke-width: 1.0;" x1="816.5" x2="858.5" y1="243.9766" y2="243.9766"/><line style="stroke: #A80036; stroke-width: 1.0;" x1="858.5" x2="858.5" y1="243.9766" y2="256.9766"/><line style="stroke: #A80036; stroke-width: 1.0;" x1="817.5" x2="858.5" y1="256.9766" y2="256.9766"/><polygon fill="#A80036" points="827.5,252.9766,817.5,256.9766,827.5,260.9766,823.5,256.9766" style="stroke: #A80036; stroke-width: 1.0;"/><text fill="#000000" font-family="sans-serif" font-size="13" lengthAdjust="spacingAndGlyphs" textLength="48" x="823.5" y="239.1201">findType</text><polygon fill="#A80036" points="941.5,283.3281,951.5,287.3281,941.5,291.3281,945.5,287.3281" style="stroke: #A80036; stroke-width: 1.0;"/><line style="stroke: #A80036; stroke-width: 1.0;" x1="816.5" x2="947.5" y1="287.3281" y2="287.3281"/><text fill="#000000" font-family="sans-serif" font-size="13" lengthAdjust="spacingAndGlyphs" textLength="91" x="823.5" y="282.4717">doSomething1()</text><line style="stroke: #A80036; stroke-width: 1.0;" x1="963.5" x2="1005.5" y1="317.6797" y2="317.6797"/><line style="stroke: #A80036; stroke-width: 1.0;" x1="1005.5" x2="1005.5" y1="317.6797" y2="330.6797"/><line style="stroke: #A80036; stroke-width: 1.0;" x1="964.5" x2="1005.5" y1="330.6797" y2="330.6797"/><polygon fill="#A80036" points="974.5,326.6797,964.5,330.6797,974.5,334.6797,970.5,330.6797" style="stroke: #A80036; stroke-width: 1.0;"/><text fill="#000000" font-family="sans-serif" font-size="13" font-style="italic" lengthAdjust="spacingAndGlyphs" textLength="73" x="970.5" y="312.8232">internal work</text><polygon fill="#A80036" points="827.5,340.6797,817.5,344.6797,827.5,348.6797,823.5,344.6797" style="stroke: #A80036; stroke-width: 1.0;"/><line style="stroke: #A80036; stroke-width: 1.0; stroke-dasharray: 2.0,2.0;" x1="821.5" x2="957.5" y1="344.6797" y2="344.6797"/><polygon fill="#A80036" points="941.5,371.0313,951.5,375.0313,941.5,379.0313,945.5,375.0313" style="stroke: #A80036; stroke-width: 1.0;"/><line style="stroke: #A80036; stroke-width: 1.0;" x1="816.5" x2="947.5" y1="375.0313" y2="375.0313"/><text fill="#000000" font-family="sans-serif" font-size="13" lengthAdjust="spacingAndGlyphs" textLength="118" x="823.5" y="370.1748">addAndroidContext()</text><line style="stroke: #A80036; stroke-width: 1.0;" x1="963.5" x2="1005.5" y1="405.3828" y2="405.3828"/><line style="stroke: #A80036; stroke-width: 1.0;" x1="1005.5" x2="1005.5" y1="405.3828" y2="418.3828"/><line style="stroke: #A80036; stroke-width: 1.0;" x1="964.5" x2="1005.5" y1="418.3828" y2="418.3828"/><polygon fill="#A80036" points="974.5,414.3828,964.5,418.3828,974.5,422.3828,970.5,418.3828" style="stroke: #A80036; stroke-width: 1.0;"/><text fill="#000000" font-family="sans-serif" font-size="13" font-style="italic" lengthAdjust="spacingAndGlyphs" textLength="73" x="970.5" y="400.5264">internal work</text><polygon fill="#A80036" points="827.5,428.3828,817.5,432.3828,827.5,436.3828,823.5,432.3828" style="stroke: #A80036; stroke-width: 1.0;"/><line style="stroke: #A80036; stroke-width: 1.0; stroke-dasharray: 2.0,2.0;" x1="821.5" x2="957.5" y1="432.3828" y2="432.3828"/><polygon fill="#A80036" points="465.5,442.3828,455.5,446.3828,465.5,450.3828,461.5,446.3828" style="stroke: #A80036; stroke-width: 1.0;"/><line style="stroke: #A80036; stroke-width: 1.0; stroke-dasharray: 2.0,2.0;" x1="459.5" x2="810.5" y1="446.3828" y2="446.3828"/><polygon fill="#A80036" points="794.5,472.7344,804.5,476.7344,794.5,480.7344,798.5,476.7344" style="stroke: #A80036; stroke-width: 1.0;"/><line style="stroke: #A80036; stroke-width: 1.0;" x1="459.5" x2="800.5" y1="476.7344" y2="476.7344"/><text fill="#000000" font-family="sans-serif" font-size="13" lengthAdjust="spacingAndGlyphs" textLength="333" x="466.5" y="471.8779">initializeCardReaderController(ICardReaderController ctc2)</text><line style="stroke: #A80036; stroke-width: 1.0;" x1="816.5" x2="858.5" y1="507.0859" y2="507.0859"/><line style="stroke: #A80036; stroke-width: 1.0;" x1="858.5" x2="858.5" y1="507.0859" y2="520.0859"/><line style="stroke: #A80036; stroke-width: 1.0;" x1="817.5" x2="858.5" y1="520.0859" y2="520.0859"/><polygon fill="#A80036" points="827.5,516.0859,817.5,520.0859,827.5,524.0859,823.5,520.0859" style="stroke: #A80036; stroke-width: 1.0;"/><text fill="#000000" font-family="sans-serif" font-size="13" lengthAdjust="spacingAndGlyphs" textLength="48" x="823.5" y="502.2295">findType</text><polygon fill="#A80036" points="1038.5,546.4375,1048.5,550.4375,1038.5,554.4375,1042.5,550.4375" style="stroke: #A80036; stroke-width: 1.0;"/><line style="stroke: #A80036; stroke-width: 1.0;" x1="816.5" x2="1044.5" y1="550.4375" y2="550.4375"/><text fill="#000000" font-family="sans-serif" font-size="13" lengthAdjust="spacingAndGlyphs" textLength="91" x="823.5" y="545.5811">doSomething1()</text><line style="stroke: #A80036; stroke-width: 1.0;" x1="1060.5" x2="1102.5" y1="580.7891" y2="580.7891"/><line style="stroke: #A80036; stroke-width: 1.0;" x1="1102.5" x2="1102.5" y1="580.7891" y2="593.7891"/><line style="stroke: #A80036; stroke-width: 1.0;" x1="1061.5" x2="1102.5" y1="593.7891" y2="593.7891"/><polygon fill="#A80036" points="1071.5,589.7891,1061.5,593.7891,1071.5,597.7891,1067.5,593.7891" style="stroke: #A80036; stroke-width: 1.0;"/><text fill="#000000" font-family="sans-serif" font-size="13" font-style="italic" lengthAdjust="spacingAndGlyphs" textLength="73" x="1067.5" y="575.9326">internal work</text><polygon fill="#A80036" points="827.5,603.7891,817.5,607.7891,827.5,611.7891,823.5,607.7891" style="stroke: #A80036; stroke-width: 1.0;"/><line style="stroke: #A80036; stroke-width: 1.0; stroke-dasharray: 2.0,2.0;" x1="821.5" x2="1054.5" y1="607.7891" y2="607.7891"/><polygon fill="#A80036" points="465.5,617.7891,455.5,621.7891,465.5,625.7891,461.5,621.7891" style="stroke: #A80036; stroke-width: 1.0;"/><line style="stroke: #A80036; stroke-width: 1.0; stroke-dasharray: 2.0,2.0;" x1="459.5" x2="805.5" y1="621.7891" y2="621.7891"/><polygon fill="#A80036" points="465.5,648.1406,455.5,652.1406,465.5,656.1406,461.5,652.1406" style="stroke: #A80036; stroke-width: 1.0;"/><line style="stroke: #A80036; stroke-width: 1.0; stroke-dasharray: 2.0,2.0;" x1="459.5" x2="810.5" y1="652.1406" y2="652.1406"/><text fill="#000000" font-family="sans-serif" font-size="13" lengthAdjust="spacingAndGlyphs" textLength="28" x="471.5" y="647.2842">done</text><polygon fill="#A80036" points="83.5,662.1406,73.5,666.1406,83.5,670.1406,79.5,666.1406" style="stroke: #A80036; stroke-width: 1.0;"/><line style="stroke: #A80036; stroke-width: 1.0; stroke-dasharray: 2.0,2.0;" x1="77.5" x2="448.5" y1="666.1406" y2="666.1406"/><!--
@startuml

box "e.g. Android Context" #LightBlue
	participant Application
end box
participant CardReaderControllerManager

box "e.g. Android Context" #LightBlue
	participant ICardReaderControllerInitializer
	participant ctc1
end box


create ICardReaderControllerInitializer
Application -> ICardReaderControllerInitializer : new
Application -> CardReaderControllerManager : call initialize with ICardReaderControllerInitializer instance
activate CardReaderControllerManager
    CardReaderControllerManager -> ICardReaderControllerInitializer: initializeCardReaderController(ICardReaderController ctc1)
    activate CardReaderControllerManager

            ICardReaderControllerInitializer -> ICardReaderControllerInitializer: //internal work//
            activate ICardReaderControllerInitializer
                ICardReaderControllerInitializer -> ICardReaderControllerInitializer: findType
                ICardReaderControllerInitializer -> ctc1: doSomething1()
                    activate ctc1
                        ctc1 -> ctc1: //internal work//
                    return
                ICardReaderControllerInitializer -> ctc1: addAndroidContext()
                    activate ctc1
                        ctc1 -> ctc1: //internal work//
                    return
         CardReaderControllerManager <- - ICardReaderControllerInitializer:
     deactivate CardReaderControllerManager
     deactivate ICardReaderControllerInitializer

    CardReaderControllerManager -> ICardReaderControllerInitializer: initializeCardReaderController(ICardReaderController ctc2)
        activate CardReaderControllerManager
            activate ICardReaderControllerInitializer
                    ICardReaderControllerInitializer -> ICardReaderControllerInitializer: findType
                    ICardReaderControllerInitializer -> ctc2: doSomething1()
                activate ctc2
                    ctc2 -> ctc2: //internal work//
                return
            CardReaderControllerManager <- - ICardReaderControllerInitializer
         deactivate CardReaderControllerManager
    return done
    return
@enduml

PlantUML version 1.2019.06(Fri May 24 19:10:25 CEST 2019)
(APACHE source distribution)
Java Runtime: OpenJDK Runtime Environment
JVM: OpenJDK 64-Bit Server VM
Java Version: 11.0.4+10-b304.69
Operating System: Windows 7
OS Version: 6.1
Default Encoding: Cp1252
Language: de
Country: DE
--></g></svg>